<svg data-v-423bf9ae="" xmlns="http://www.w3.org/2000/svg" viewBox="0 0 213.6470834628663 60" class="font"><!----><!----><!----><g data-v-423bf9ae="" id="e8cbc7bb-a505-463f-824b-6ef6f3f6d8e7" fill="#ffffff" transform="matrix(5.88235305117351,0,0,5.88235305117351,-3.9411786996096794,-20.647059868776267)"><path d="M3.92 13.71L3.92 13.71Q3.09 13.71 2.15 13.48L2.15 13.48L2.15 13.48Q1.20 13.26 0.67 12.99L0.67 12.99L0.88 11.09L0.88 11.09Q2.73 11.98 4.13 11.98L4.13 11.98L4.13 11.98Q4.87 11.98 5.29 11.70L5.29 11.70L5.29 11.70Q5.71 11.41 5.71 10.85L5.71 10.85L5.71 10.85Q5.71 10.43 5.48 10.16L5.48 10.16L5.48 10.16Q5.25 9.88 4.82 9.70L4.82 9.70L4.82 9.70Q4.38 9.51 3.43 9.17L3.43 9.17L3.43 9.17Q2.53 8.86 1.95 8.52L1.95 8.52L1.95 8.52Q1.36 8.18 1.02 7.64L1.02 7.64L1.02 7.64Q0.67 7.10 0.67 6.31L0.67 6.31L0.67 6.31Q0.67 5.05 1.60 4.28L1.60 4.28L1.60 4.28Q2.52 3.51 4.24 3.51L4.24 3.51L4.24 3.51Q5.05 3.51 5.86 3.70L5.86 3.70L5.86 3.70Q6.66 3.88 7.34 4.14L7.34 4.14L7.15 5.98L7.15 5.98Q6.29 5.60 5.57 5.41L5.57 5.41L5.57 5.41Q4.84 5.22 4.13 5.22L4.13 5.22L4.13 5.22Q3.33 5.22 2.91 5.49L2.91 5.49L2.91 5.49Q2.49 5.75 2.49 6.26L2.49 6.26L2.49 6.26Q2.49 6.65 2.72 6.90L2.72 6.90L2.72 6.90Q2.94 7.15 3.33 7.32L3.33 7.32L3.33 7.32Q3.71 7.49 4.47 7.73L4.47 7.73L4.47 7.73Q6.16 8.26 6.94 8.95L6.94 8.95L6.94 8.95Q7.71 9.65 7.71 10.85L7.71 10.85L7.71 10.85Q7.71 12.00 6.92 12.85L6.92 12.85L6.92 12.85Q6.12 13.71 3.92 13.71L3.92 13.71ZM12.31 13.65L12.31 13.65Q11.09 13.65 10.23 13.15L10.23 13.15L10.23 13.15Q9.37 12.66 8.94 11.82L8.94 11.82L8.94 11.82Q8.51 10.99 8.51 9.97L8.51 9.97L8.51 9.97Q8.51 8.99 8.92 8.18L8.92 8.18L8.92 8.18Q9.32 7.36 10.09 6.88L10.09 6.88L10.09 6.88Q10.86 6.40 11.93 6.40L11.93 6.40L11.93 6.40Q12.91 6.40 13.59 6.80L13.59 6.80L13.59 6.80Q14.27 7.21 14.61 7.90L14.61 7.90L14.61 7.90Q14.95 8.58 14.95 9.44L14.95 9.44L14.95 9.44Q14.95 9.86 14.84 10.39L14.84 10.39L10.32 10.39L10.32 10.39Q10.46 11.31 11.05 11.77L11.05 11.77L11.05 11.77Q11.63 12.22 12.46 12.22L12.46 12.22L12.46 12.22Q13.59 12.22 14.56 11.65L14.56 11.65L14.64 13.12L14.64 13.12Q14.20 13.36 13.60 13.50L13.60 13.50L13.60 13.50Q13.01 13.65 12.31 13.65L12.31 13.65ZM10.36 9.21L13.19 9.21L13.19 9.21Q13.19 8.67 12.88 8.25L12.88 8.25L12.88 8.25Q12.57 7.83 11.93 7.83L11.93 7.83L11.93 7.83Q11.28 7.83 10.89 8.20L10.89 8.20L10.89 8.20Q10.50 8.58 10.36 9.21L10.36 9.21ZM16.14 13.51L16.14 6.51L17.77 6.51L17.81 7.25L17.81 7.25Q18.12 6.90 18.60 6.64L18.60 6.64L18.60 6.64Q19.08 6.37 19.61 6.37L19.61 6.37L19.61 6.37Q19.78 6.37 19.92 6.40L19.92 6.40L19.80 8.11L19.80 8.11Q19.53 8.04 19.19 8.04L19.19 8.04L19.19 8.04Q18.76 8.04 18.40 8.24L18.40 8.24L18.40 8.24Q18.03 8.44 17.88 8.74L17.88 8.74L17.88 13.51L16.14 13.51ZM22.68 13.51L19.99 6.51L21.70 6.51L23.42 11.35L25.14 6.51L26.85 6.51L24.16 13.51L22.68 13.51ZM27.71 5.45L27.71 3.71L29.44 3.71L29.44 5.45L27.71 5.45ZM27.71 13.51L27.71 6.51L29.44 6.51L29.44 13.51L27.71 13.51ZM30.39 13.51L32.72 10.01L30.39 6.51L32.47 6.51L33.74 8.54L34.92 6.51L36.99 6.51L34.66 10.01L36.99 13.51L34.92 13.51L33.64 11.48L32.47 13.51L30.39 13.51Z"></path></g><!----><!----></svg>