<svg data-v-423bf9ae="" xmlns="http://www.w3.org/2000/svg" viewBox="0 0 242.79353984114374 60" class="font"><!----><!----><defs data-v-423bf9ae=""><linearGradient data-v-423bf9ae="" gradientTransform="rotate(25)" id="39182fe8-ab78-41ec-aa26-b0037e3eb81b" x1="0%" y1="0%" x2="100%" y2="0%"><stop data-v-423bf9ae="" offset="0%" style="stop-color: rgb(235, 219, 183); stop-opacity: 1;"></stop><stop data-v-423bf9ae="" offset="100%" style="stop-color: rgb(230, 225, 214); stop-opacity: 1;"></stop></linearGradient></defs><g data-v-423bf9ae="" id="ab005dc6-b102-41d6-9efa-054e9773e780" fill="url(#39182fe8-ab78-41ec-aa26-b0037e3eb81b)" transform="matrix(6.072874423584482,0,0,6.072874423584482,-2.5506049547904723,-22.10526330049882)"><path d="M4.54 11.82C3.50 11.82 2.60 11.30 2.55 10.16L0.42 10.16C0.43 12.49 2.35 13.52 4.45 13.52C6.40 13.52 8.40 12.70 8.40 10.46C8.40 6.83 2.90 8.05 2.90 6.36C2.90 5.64 3.72 5.36 4.31 5.36C5.36 5.36 5.94 5.68 6.05 6.68L8.08 6.68C8.01 4.51 6.24 3.64 4.28 3.64C2.55 3.64 0.73 4.56 0.73 6.52C0.73 10.04 6.23 8.85 6.23 10.70C6.23 11.55 5.19 11.82 4.54 11.82ZM11.56 9.48C11.56 9.48 11.63 8.33 12.95 8.33C14.22 8.33 14.32 9.48 14.32 9.48ZM16.34 10.08C16.34 8.11 14.78 6.99 12.91 6.99C10.84 6.99 9.31 8.29 9.31 10.22C9.31 12.18 10.78 13.44 12.91 13.44C14.55 13.44 15.86 12.63 16.23 11.00L14.08 11.00C14.07 11.45 13.61 11.94 12.87 11.94C12.04 11.94 11.54 11.19 11.54 10.47L16.32 10.47C16.32 10.35 16.34 10.21 16.34 10.08ZM21.15 8.68C21.48 8.68 21.78 8.78 21.99 9.03L22.02 9.03L22.02 7.13C21.85 7.04 21.57 6.99 21.39 6.99C20.62 6.99 20.09 7.42 19.77 7.88L19.77 7.13L17.67 7.13L17.67 13.30L19.77 13.30L19.77 10.22C19.77 9.48 20.37 8.68 21.15 8.68ZM29.20 7.13L27.08 7.13L25.61 11.54L24.14 7.13L22.02 7.13L24.37 13.30L26.85 13.30ZM29.79 5.01C29.79 5.68 30.34 6.24 31.02 6.24C31.70 6.24 32.26 5.68 32.26 5.01C32.26 4.33 31.70 3.78 31.02 3.78C30.34 3.78 29.79 4.33 29.79 5.01ZM32.07 13.30L32.07 7.13L29.97 7.13L29.97 13.30ZM32.90 7.14L35.21 10.19L32.70 13.30L35.27 13.30L36.55 11.40L37.84 13.30L40.40 13.30L37.90 10.19L40.21 7.14L37.77 7.14L36.55 9.03L35.34 7.14Z"></path></g><!----><!----></svg>